<svg xmlns="http://www.w3.org/2000/svg" xmlns:xlink="http://www.w3.org/1999/xlink" width="800" zoomAndPan="magnify" viewBox="0 0 600 599.999999" height="800" preserveAspectRatio="xMidYMid meet" version="1.0"><defs><g/><clipPath id="022d2c84ed"><path d="M 129.199219 232.476562 L 246.054688 232.476562 L 246.054688 320.871094 L 129.199219 320.871094 Z M 129.199219 232.476562 " clip-rule="nonzero"/></clipPath><clipPath id="cf0eacd8e2"><path d="M 133.289062 311.605469 L 190.050781 311.605469 L 190.050781 321.121094 L 133.289062 321.121094 Z M 133.289062 311.605469 " clip-rule="nonzero"/></clipPath><clipPath id="da04d4f9d0"><path d="M 87 278 L 195 278 L 195 388 L 87 388 Z M 87 278 " clip-rule="nonzero"/></clipPath><clipPath id="d222e4c807"><path d="M 155.917969 276.800781 L 196.167969 314.640625 L 126.160156 389.105469 L 85.910156 351.261719 Z M 155.917969 276.800781 " clip-rule="nonzero"/></clipPath><clipPath id="6e621dbe4b"><path d="M 155.917969 276.800781 L 196.167969 314.640625 L 126.160156 389.105469 L 85.910156 351.261719 Z M 155.917969 276.800781 " clip-rule="nonzero"/></clipPath><clipPath id="0ebc75c8d2"><path d="M 155.917969 276.800781 L 196.167969 314.640625 L 126.160156 389.105469 L 85.910156 351.261719 Z M 155.917969 276.800781 " clip-rule="nonzero"/></clipPath><clipPath id="de2ded7995"><path d="M 85.914062 301.773438 L 131.835938 301.773438 L 131.835938 387 L 85.914062 387 Z M 85.914062 301.773438 " clip-rule="nonzero"/></clipPath><clipPath id="66b03e6b3b"><path d="M 188.402344 324.3125 L 246.410156 324.3125 L 246.410156 382.320312 L 188.402344 382.320312 Z M 188.402344 324.3125 " clip-rule="nonzero"/></clipPath><clipPath id="1e7a0b6141"><path d="M 58.714844 304 L 131.222656 304 L 131.222656 382.332031 L 58.714844 382.332031 Z M 58.714844 304 " clip-rule="nonzero"/></clipPath><clipPath id="d39eba59e3"><path d="M 90 232.476562 L 131.222656 232.476562 L 131.222656 311 L 90 311 Z M 90 232.476562 " clip-rule="nonzero"/></clipPath><clipPath id="39dfd67959"><path d="M 194 210.761719 L 210 210.761719 L 210 226 L 194 226 Z M 194 210.761719 " clip-rule="nonzero"/></clipPath></defs><rect x="-60" width="720" fill="#ffffff" y="-60" height="719.999999" fill-opacity="1"/><rect x="-60" width="720" fill="#ffffff" y="-60" height="719.999999" fill-opacity="1"/><rect x="-60" width="720" fill="#ffffff" y="-60" height="719.999999" fill-opacity="1"/><g clip-path="url(#022d2c84ed)"><path fill="#000000" d="M 118.847656 232.484375 C 115.867188 232.484375 113.464844 234.683594 113.464844 237.414062 L 113.464844 315.933594 C 113.464844 318.664062 115.867188 320.867188 118.847656 320.867188 L 240.671875 320.867188 C 243.652344 320.867188 246.054688 318.664062 246.054688 315.933594 L 246.054688 237.414062 C 246.054688 234.683594 243.652344 232.484375 240.671875 232.484375 Z M 179.757812 234.453125 C 180.003906 234.453125 180.238281 234.5 180.464844 234.59375 C 180.691406 234.6875 180.890625 234.820312 181.0625 234.992188 C 181.238281 235.164062 181.371094 235.363281 181.464844 235.589844 C 181.558594 235.816406 181.605469 236.050781 181.605469 236.292969 C 181.605469 236.539062 181.558594 236.773438 181.464844 237 C 181.371094 237.226562 181.238281 237.425781 181.0625 237.597656 C 180.890625 237.769531 180.691406 237.902344 180.464844 237.996094 C 180.238281 238.089844 180.003906 238.136719 179.757812 238.136719 C 179.515625 238.136719 179.277344 238.089844 179.054688 237.996094 C 178.828125 237.902344 178.628906 237.769531 178.453125 237.597656 C 178.28125 237.425781 178.148438 237.226562 178.054688 237 C 177.960938 236.773438 177.914062 236.539062 177.914062 236.292969 C 177.914062 236.050781 177.960938 235.816406 178.054688 235.589844 C 178.148438 235.363281 178.28125 235.164062 178.453125 234.992188 C 178.628906 234.820312 178.828125 234.6875 179.054688 234.59375 C 179.277344 234.5 179.515625 234.453125 179.757812 234.453125 Z M 121.503906 240.074219 L 238.015625 240.074219 L 238.015625 313.269531 L 121.503906 313.269531 Z M 169.492188 315.851562 L 190.027344 315.851562 C 190.699219 315.851562 191.238281 316.386719 191.238281 317.054688 C 191.238281 317.726562 190.699219 318.261719 190.027344 318.261719 L 169.492188 318.261719 C 168.820312 318.261719 168.28125 317.726562 168.28125 317.054688 C 168.28125 316.386719 168.820312 315.851562 169.492188 315.851562 Z M 169.492188 315.851562 " fill-opacity="1" fill-rule="nonzero"/></g><g clip-path="url(#cf0eacd8e2)"><path fill="#ffffff" d="M 133.289062 311.605469 L 190.777344 311.605469 L 190.777344 321.183594 L 133.289062 321.183594 Z M 133.289062 311.605469 " fill-opacity="1" fill-rule="nonzero"/></g><g clip-path="url(#da04d4f9d0)"><g clip-path="url(#d222e4c807)"><g clip-path="url(#6e621dbe4b)"><g clip-path="url(#0ebc75c8d2)"><path fill="#000000" d="M 192.699219 311.480469 C 192.777344 311.554688 192.851562 311.632812 192.925781 311.710938 C 193.0625 311.859375 193.1875 312.015625 193.300781 312.179688 C 193.449219 312.390625 193.578125 312.613281 193.691406 312.847656 C 193.808594 313.097656 193.902344 313.359375 193.972656 313.628906 C 194.042969 313.902344 194.089844 314.183594 194.109375 314.464844 C 194.132812 314.785156 194.121094 315.105469 194.078125 315.421875 C 194.039062 315.71875 193.96875 316.011719 193.867188 316.292969 C 193.769531 316.578125 193.644531 316.851562 193.492188 317.109375 C 193.386719 317.292969 193.265625 317.464844 193.132812 317.632812 C 193.058594 317.726562 192.980469 317.820312 192.894531 317.910156 C 171.777344 340.582031 150.550781 363.160156 129.21875 385.636719 C 129.132812 385.726562 129.046875 385.8125 128.957031 385.890625 C 128.800781 386.035156 128.632812 386.164062 128.457031 386.28125 C 128.230469 386.433594 127.992188 386.566406 127.746094 386.675781 C 127.46875 386.796875 127.183594 386.890625 126.890625 386.953125 C 126.597656 387.019531 126.296875 387.054688 125.992188 387.0625 C 125.691406 387.066406 125.390625 387.042969 125.09375 386.992188 C 124.835938 386.945312 124.582031 386.875 124.335938 386.785156 C 124.078125 386.691406 123.832031 386.578125 123.597656 386.441406 C 123.417969 386.332031 123.242188 386.214844 123.078125 386.085938 C 122.984375 386.007812 122.890625 385.929688 122.800781 385.847656 C 111.609375 375.421875 100.46875 364.945312 89.375 354.417969 C 89.285156 354.335938 89.203125 354.25 89.121094 354.15625 C 88.980469 354 88.851562 353.835938 88.734375 353.660156 C 88.582031 353.4375 88.453125 353.195312 88.34375 352.949219 C 88.214844 352.65625 88.121094 352.351562 88.054688 352.042969 C 87.996094 351.746094 87.964844 351.445312 87.960938 351.144531 C 87.960938 350.851562 87.988281 350.558594 88.042969 350.269531 C 88.09375 350.003906 88.167969 349.738281 88.265625 349.484375 C 88.359375 349.238281 88.472656 349.003906 88.609375 348.777344 C 88.71875 348.589844 88.839844 348.414062 88.976562 348.246094 C 89.042969 348.164062 89.113281 348.082031 89.1875 348.003906 C 110.296875 325.316406 131.523438 302.742188 152.867188 280.273438 C 152.941406 280.195312 153.015625 280.121094 153.09375 280.046875 C 153.253906 279.902344 153.425781 279.765625 153.601562 279.644531 C 153.832031 279.488281 154.074219 279.355469 154.328125 279.242188 C 154.589844 279.125 154.859375 279.035156 155.140625 278.96875 C 155.425781 278.902344 155.714844 278.863281 156.007812 278.851562 C 156.300781 278.839844 156.59375 278.859375 156.882812 278.902344 C 157.167969 278.945312 157.449219 279.019531 157.722656 279.117188 C 157.996094 279.214844 158.261719 279.335938 158.507812 279.484375 C 158.691406 279.59375 158.863281 279.714844 159.027344 279.84375 C 159.113281 279.914062 159.199219 279.988281 159.28125 280.0625 C 170.472656 290.484375 181.578125 300.992188 192.699219 311.480469 Z M 113.164062 364.679688 L 111.085938 362.730469 C 110.269531 361.960938 108.980469 362.003906 108.210938 362.824219 L 106.253906 364.90625 C 105.480469 365.726562 105.519531 367.015625 106.335938 367.78125 L 108.414062 369.734375 C 109.230469 370.5 110.515625 370.460938 111.289062 369.640625 L 113.246094 367.554688 C 114.015625 366.738281 113.980469 365.449219 113.164062 364.679688 Z M 111.882812 365.261719 C 112.394531 365.742188 112.417969 366.546875 111.9375 367.058594 L 110.710938 368.363281 C 110.230469 368.875 109.425781 368.902344 108.914062 368.421875 L 107.613281 367.199219 C 107.105469 366.722656 107.082031 365.914062 107.5625 365.402344 L 108.789062 364.101562 C 109.269531 363.585938 110.074219 363.5625 110.585938 364.042969 Z M 189.988281 318.65625 L 152.304688 283.226562 C 133 303.699219 113.660156 324.132812 94.46875 344.710938 L 132.171875 380.160156 C 151.484375 359.695312 170.804688 339.242188 189.992188 318.660156 Z M 180.71875 303.960938 L 167.53125 291.5625 C 167.375 291.414062 167.128906 291.421875 166.980469 291.578125 L 166.449219 292.144531 C 166.300781 292.300781 166.308594 292.546875 166.464844 292.695312 L 179.652344 305.09375 C 179.808594 305.242188 180.054688 305.230469 180.203125 305.074219 L 180.734375 304.507812 C 180.882812 304.351562 180.875 304.105469 180.71875 303.960938 Z M 180.71875 303.960938 " fill-opacity="1" fill-rule="evenodd"/></g></g></g></g><g clip-path="url(#de2ded7995)"><path fill="#ffffff" d="M 85.914062 301.773438 L 131.425781 301.773438 L 131.425781 386.808594 L 85.914062 386.808594 Z M 85.914062 301.773438 " fill-opacity="1" fill-rule="nonzero"/></g><g clip-path="url(#66b03e6b3b)"><path fill="#000000" d="M 241.90625 347.265625 L 240.664062 347.265625 C 239.976562 347.265625 239.371094 346.820312 239.152344 346.171875 C 238.789062 345.078125 238.359375 344.015625 237.832031 343 C 237.523438 342.382812 237.628906 341.640625 238.128906 341.140625 L 239.019531 340.25 C 240.773438 338.496094 240.773438 335.621094 239.019531 333.867188 L 236.832031 331.710938 C 235.078125 329.957031 232.21875 329.957031 230.453125 331.710938 L 229.5625 332.601562 C 229.078125 333.085938 228.320312 333.207031 227.714844 332.898438 C 226.703125 332.386719 225.636719 331.941406 224.542969 331.574219 C 223.882812 331.359375 223.453125 330.753906 223.453125 330.066406 L 223.453125 328.824219 C 223.453125 326.339844 221.429688 324.316406 218.945312 324.316406 L 215.882812 324.316406 C 213.402344 324.316406 211.378906 326.339844 211.378906 328.824219 L 211.378906 330.066406 C 211.378906 330.753906 210.933594 331.359375 210.285156 331.574219 C 209.191406 331.941406 208.125 332.371094 207.113281 332.898438 C 206.496094 333.207031 205.753906 333.101562 205.253906 332.601562 L 204.363281 331.710938 C 202.609375 329.957031 199.734375 329.957031 197.980469 331.710938 L 195.808594 333.882812 C 194.054688 335.636719 194.054688 338.507812 195.808594 340.261719 L 196.699219 341.152344 C 197.1875 341.640625 197.308594 342.382812 196.996094 343 C 196.484375 344.015625 196.039062 345.078125 195.675781 346.171875 C 195.460938 346.832031 194.851562 347.265625 194.164062 347.265625 L 192.921875 347.265625 C 190.425781 347.265625 188.402344 349.289062 188.402344 351.785156 L 188.402344 354.847656 C 188.402344 357.328125 190.425781 359.351562 192.910156 359.351562 L 194.152344 359.351562 C 194.839844 359.351562 195.445312 359.796875 195.660156 360.445312 C 196.027344 361.539062 196.457031 362.601562 196.984375 363.613281 C 197.292969 364.234375 197.1875 364.976562 196.6875 365.476562 L 195.796875 366.367188 C 194.042969 368.121094 194.042969 370.992188 195.796875 372.746094 L 197.980469 374.90625 C 199.734375 376.660156 202.59375 376.660156 204.363281 374.90625 L 205.253906 374.015625 C 205.738281 373.53125 206.496094 373.410156 207.101562 373.71875 C 208.113281 374.230469 209.179688 374.675781 210.273438 375.042969 C 210.933594 375.257812 211.363281 375.863281 211.363281 376.550781 L 211.363281 377.808594 C 211.363281 380.289062 213.386719 382.3125 215.871094 382.3125 L 218.933594 382.3125 C 221.414062 382.3125 223.4375 380.289062 223.4375 377.808594 L 223.4375 376.550781 C 223.4375 375.863281 223.882812 375.257812 224.53125 375.042969 C 225.625 374.675781 226.6875 374.246094 227.699219 373.71875 C 228.320312 373.410156 229.0625 373.515625 229.5625 374.015625 L 230.453125 374.90625 C 232.207031 376.660156 235.078125 376.660156 236.832031 374.90625 L 239.003906 372.734375 C 240.757812 370.980469 240.757812 368.105469 239.003906 366.351562 L 238.117188 365.464844 C 237.628906 364.976562 237.507812 364.234375 237.820312 363.613281 C 238.332031 362.601562 238.777344 361.539062 239.140625 360.445312 C 239.355469 359.785156 239.964844 359.351562 240.652344 359.351562 L 241.890625 359.351562 C 244.375 359.351562 246.398438 357.328125 246.398438 354.847656 L 246.398438 351.785156 C 246.410156 349.289062 244.386719 347.265625 241.90625 347.265625 Z M 243.511719 354.832031 C 243.511719 355.722656 242.78125 356.4375 241.90625 356.4375 L 240.664062 356.4375 C 238.722656 356.4375 237.007812 357.679688 236.402344 359.527344 C 236.089844 360.472656 235.699219 361.402344 235.253906 362.292969 C 234.378906 364.03125 234.703125 366.125 236.078125 367.511719 L 236.96875 368.402344 C 237.601562 369.039062 237.601562 370.050781 236.96875 370.683594 L 234.796875 372.855469 C 234.164062 373.488281 233.136719 373.476562 232.515625 372.855469 L 231.625 371.964844 C 230.25 370.589844 228.160156 370.253906 226.40625 371.140625 C 225.515625 371.585938 224.597656 371.980469 223.640625 372.289062 C 221.792969 372.894531 220.550781 374.609375 220.550781 376.550781 L 220.550781 377.808594 C 220.550781 378.695312 219.824219 379.410156 218.945312 379.410156 L 215.882812 379.410156 C 214.992188 379.410156 214.277344 378.683594 214.277344 377.808594 L 214.277344 376.550781 C 214.277344 374.609375 213.035156 372.894531 211.1875 372.289062 C 210.246094 371.980469 209.3125 371.585938 208.421875 371.140625 C 207.777344 370.820312 207.074219 370.65625 206.386719 370.65625 C 205.226562 370.65625 204.078125 371.117188 203.214844 371.980469 L 202.324219 372.871094 C 201.691406 373.488281 200.679688 373.503906 200.046875 372.871094 L 197.875 370.699219 C 197.238281 370.0625 197.238281 369.050781 197.875 368.417969 L 198.765625 367.527344 C 200.140625 366.152344 200.476562 364.058594 199.585938 362.304688 C 199.140625 361.417969 198.75 360.5 198.441406 359.539062 C 197.832031 357.691406 196.121094 356.453125 194.175781 356.453125 L 192.9375 356.453125 C 192.046875 356.453125 191.332031 355.722656 191.332031 354.847656 L 191.332031 351.785156 C 191.332031 350.894531 192.058594 350.179688 192.9375 350.179688 L 194.175781 350.179688 C 196.121094 350.179688 197.832031 348.9375 198.441406 347.089844 C 198.75 346.144531 199.140625 345.214844 199.585938 344.324219 C 200.464844 342.582031 200.140625 340.492188 198.765625 339.101562 L 197.875 338.214844 C 197.238281 337.578125 197.238281 336.566406 197.875 335.933594 L 200.046875 333.761719 C 200.679688 333.128906 201.691406 333.128906 202.324219 333.761719 L 203.214844 334.652344 C 204.59375 336.027344 206.695312 336.363281 208.4375 335.472656 C 209.328125 335.027344 210.246094 334.636719 211.203125 334.328125 C 213.050781 333.71875 214.292969 332.007812 214.292969 330.066406 L 214.292969 328.824219 C 214.292969 327.933594 215.019531 327.21875 215.898438 327.21875 L 218.960938 327.21875 C 219.847656 327.21875 220.566406 327.945312 220.566406 328.824219 L 220.566406 330.066406 C 220.566406 332.007812 221.804688 333.71875 223.652344 334.328125 C 224.597656 334.636719 225.527344 335.027344 226.417969 335.472656 C 228.160156 336.351562 230.25 336.027344 231.640625 334.652344 L 232.53125 333.761719 C 233.152344 333.128906 234.175781 333.128906 234.808594 333.761719 L 236.980469 335.933594 C 237.617188 336.566406 237.617188 337.578125 236.980469 338.214844 L 236.089844 339.101562 C 234.714844 340.480469 234.378906 342.570312 235.269531 344.324219 C 235.714844 345.214844 236.105469 346.132812 236.414062 347.089844 C 237.023438 348.9375 238.734375 350.179688 240.679688 350.179688 L 241.917969 350.179688 C 242.808594 350.179688 243.523438 350.90625 243.523438 351.785156 L 243.523438 354.832031 Z M 243.511719 354.832031 " fill-opacity="1" fill-rule="nonzero"/></g><path fill="#000000" d="M 217.40625 338.078125 C 209.015625 338.078125 202.175781 344.902344 202.175781 353.308594 C 202.175781 361.710938 209.015625 368.539062 217.40625 368.539062 C 225.796875 368.539062 232.636719 361.699219 232.636719 353.308594 C 232.636719 344.917969 225.796875 338.078125 217.40625 338.078125 Z M 217.40625 365.636719 C 210.609375 365.636719 205.078125 360.109375 205.078125 353.308594 C 205.078125 346.507812 210.609375 340.976562 217.40625 340.976562 C 224.207031 340.976562 229.738281 346.507812 229.738281 353.308594 C 229.738281 360.109375 224.207031 365.636719 217.40625 365.636719 Z M 217.40625 365.636719 " fill-opacity="1" fill-rule="nonzero"/><g clip-path="url(#1e7a0b6141)"><path fill="#000000" d="M 178.519531 314.035156 L 166.375 305.347656 L 162.226562 311.148438 L 174.371094 319.871094 C 186.976562 328.867188 194.476562 343.484375 194.476562 358.960938 L 194.476562 371.675781 C 194.476562 373.640625 192.878906 375.238281 190.910156 375.238281 L 69.460938 375.238281 C 67.496094 375.238281 65.894531 373.640625 65.894531 371.675781 L 65.894531 358.253906 C 65.894531 343.207031 73.089844 328.835938 85.144531 319.777344 L 97.535156 310.472656 L 93.230469 304.761719 L 80.839844 314.066406 C 67.003906 324.414062 58.730469 340.9375 58.730469 358.226562 L 58.730469 371.644531 C 58.730469 377.539062 63.527344 382.332031 69.460938 382.332031 L 190.910156 382.332031 C 196.816406 382.332031 201.640625 377.539062 201.640625 371.613281 L 201.640625 358.898438 C 201.640625 341.152344 193.003906 324.386719 178.519531 314.035156 Z M 178.519531 314.035156 " fill-opacity="1" fill-rule="nonzero"/></g><g clip-path="url(#d39eba59e3)"><path fill="#000000" d="M 130.1875 310.964844 C 151.863281 310.964844 169.480469 293.371094 169.480469 271.722656 C 169.480469 250.070312 151.863281 232.476562 130.1875 232.476562 C 108.511719 232.476562 90.894531 250.070312 90.894531 271.722656 C 90.894531 293.371094 108.511719 310.964844 130.1875 310.964844 Z M 130.1875 239.601562 C 147.898438 239.601562 162.347656 254.035156 162.347656 271.722656 C 162.347656 289.410156 147.898438 303.839844 130.1875 303.839844 C 112.476562 303.839844 98.027344 289.4375 98.027344 271.722656 C 98.027344 254.003906 112.445312 239.601562 130.1875 239.601562 Z M 130.1875 239.601562 " fill-opacity="1" fill-rule="nonzero"/></g><path stroke-linecap="butt" transform="matrix(-0.000000000000000111, 0.691317, -0.690571, -0.000000000000000111, 132.967377, 232.479545)" fill="none" stroke-linejoin="miter" d="M 0.00133581 2.498209 L 216.775007 2.498209 " stroke="#000000" stroke-width="5" stroke-opacity="1" stroke-miterlimit="4"/><path fill="#000000" d="M 171.199219 259.316406 L 200.804688 229.535156 L 191.066406 219.792969 L 161.457031 249.582031 Z M 171.199219 259.316406 " fill-opacity="1" fill-rule="nonzero"/><g clip-path="url(#39dfd67959)"><path fill="#000000" d="M 204.488281 225.804688 L 208.789062 221.460938 C 209.96875 220.28125 209.96875 218.347656 208.789062 217.164062 L 203.390625 211.726562 C 202.207031 210.539062 200.28125 210.539062 199.089844 211.726562 L 194.792969 216.070312 Z M 204.488281 225.804688 " fill-opacity="1" fill-rule="nonzero"/></g><path fill="#000000" d="M 158.519531 253.046875 L 155.582031 264.277344 C 155.316406 265.289062 156.28125 266.207031 157.292969 265.859375 L 167.867188 262.304688 C 167.910156 262.304688 167.910156 262.261719 167.957031 262.261719 L 158.5625 252.914062 C 158.519531 252.957031 158.519531 253.003906 158.519531 253.046875 Z M 158.519531 253.046875 " fill-opacity="1" fill-rule="nonzero"/><g fill="#000000" fill-opacity="1"><g transform="translate(290.821569, 311.012012)"><g><path d="M 13.671875 -26.828125 C 12.328125 -26.742188 11.347656 -26.335938 10.734375 -25.609375 C 10.128906 -24.878906 9.828125 -23.828125 9.828125 -22.453125 L 9.828125 -21.4375 L 13.546875 -21.4375 C 15.179688 -21.4375 16 -20.75 16 -19.375 C 16 -18 15.179688 -17.3125 13.546875 -17.3125 L 9.828125 -17.3125 L 9.828125 -2.375 C 9.828125 -1.519531 9.566406 -0.875 9.046875 -0.4375 C 8.535156 0 7.890625 0.21875 7.109375 0.21875 C 6.316406 0.21875 5.65625 0 5.125 -0.4375 C 4.601562 -0.875 4.34375 -1.519531 4.34375 -2.375 L 4.34375 -17.3125 L 2.140625 -17.3125 C 0.503906 -17.3125 -0.3125 -18 -0.3125 -19.375 C -0.3125 -20.75 0.503906 -21.4375 2.140625 -21.4375 L 4.34375 -21.4375 L 4.34375 -21.75 C 4.34375 -24.5 5.066406 -26.65625 6.515625 -28.21875 C 7.960938 -29.78125 10 -30.660156 12.625 -30.859375 L 13.765625 -30.953125 C 14.929688 -31.035156 15.753906 -30.910156 16.234375 -30.578125 C 16.722656 -30.242188 16.96875 -29.726562 16.96875 -29.03125 C 16.96875 -27.769531 16.25 -27.066406 14.8125 -26.921875 Z M 13.671875 -26.828125 "/></g></g></g><g fill="#000000" fill-opacity="1"><g transform="translate(306.513258, 311.012012)"><g><path d="M 14.8125 -21.875 C 15.570312 -21.9375 16.171875 -21.773438 16.609375 -21.390625 C 17.054688 -21.015625 17.28125 -20.445312 17.28125 -19.6875 C 17.28125 -18.894531 17.085938 -18.304688 16.703125 -17.921875 C 16.328125 -17.546875 15.640625 -17.300781 14.640625 -17.1875 L 13.328125 -17.0625 C 11.597656 -16.882812 10.332031 -16.296875 9.53125 -15.296875 C 8.726562 -14.304688 8.328125 -13.066406 8.328125 -11.578125 L 8.328125 -2.375 C 8.328125 -1.519531 8.0625 -0.863281 7.53125 -0.40625 C 7.007812 0.0390625 6.351562 0.265625 5.5625 0.265625 C 4.78125 0.265625 4.128906 0.0390625 3.609375 -0.40625 C 3.097656 -0.863281 2.84375 -1.519531 2.84375 -2.375 L 2.84375 -19.328125 C 2.84375 -20.148438 3.097656 -20.78125 3.609375 -21.21875 C 4.128906 -21.65625 4.769531 -21.875 5.53125 -21.875 C 6.289062 -21.875 6.898438 -21.660156 7.359375 -21.234375 C 7.828125 -20.816406 8.0625 -20.210938 8.0625 -19.421875 L 8.0625 -17.671875 C 8.625 -18.953125 9.453125 -19.941406 10.546875 -20.640625 C 11.640625 -21.347656 12.859375 -21.742188 14.203125 -21.828125 Z M 14.8125 -21.875 "/></g></g></g><g fill="#000000" fill-opacity="1"><g transform="translate(323.300732, 311.012012)"><g><path d="M 12.625 0.34375 C 10.4375 0.34375 8.515625 -0.109375 6.859375 -1.015625 C 5.210938 -1.921875 3.9375 -3.21875 3.03125 -4.90625 C 2.125 -6.601562 1.671875 -8.578125 1.671875 -10.828125 C 1.671875 -13.078125 2.125 -15.039062 3.03125 -16.71875 C 3.9375 -18.40625 5.210938 -19.703125 6.859375 -20.609375 C 8.515625 -21.515625 10.4375 -21.96875 12.625 -21.96875 C 14.820312 -21.96875 16.742188 -21.515625 18.390625 -20.609375 C 20.046875 -19.703125 21.316406 -18.40625 22.203125 -16.71875 C 23.097656 -15.039062 23.546875 -13.078125 23.546875 -10.828125 C 23.546875 -8.578125 23.097656 -6.601562 22.203125 -4.90625 C 21.316406 -3.21875 20.046875 -1.921875 18.390625 -1.015625 C 16.742188 -0.109375 14.820312 0.34375 12.625 0.34375 Z M 12.578125 -3.90625 C 14.359375 -3.90625 15.71875 -4.488281 16.65625 -5.65625 C 17.59375 -6.820312 18.0625 -8.546875 18.0625 -10.828125 C 18.0625 -13.078125 17.59375 -14.789062 16.65625 -15.96875 C 15.71875 -17.15625 14.375 -17.75 12.625 -17.75 C 10.875 -17.75 9.519531 -17.15625 8.5625 -15.96875 C 7.613281 -14.789062 7.140625 -13.078125 7.140625 -10.828125 C 7.140625 -8.546875 7.609375 -6.820312 8.546875 -5.65625 C 9.484375 -4.488281 10.828125 -3.90625 12.578125 -3.90625 Z M 12.578125 -3.90625 "/></g></g></g><g fill="#000000" fill-opacity="1"><g transform="translate(348.503857, 311.012012)"><g><path d="M 15.296875 -21.96875 C 17.867188 -21.96875 19.785156 -21.234375 21.046875 -19.765625 C 22.304688 -18.304688 22.9375 -16.101562 22.9375 -13.15625 L 22.9375 -2.375 C 22.9375 -1.550781 22.691406 -0.90625 22.203125 -0.4375 C 21.722656 0.03125 21.0625 0.265625 20.21875 0.265625 C 19.363281 0.265625 18.6875 0.03125 18.1875 -0.4375 C 17.695312 -0.90625 17.453125 -1.550781 17.453125 -2.375 L 17.453125 -12.84375 C 17.453125 -14.507812 17.132812 -15.722656 16.5 -16.484375 C 15.875 -17.242188 14.890625 -17.625 13.546875 -17.625 C 11.972656 -17.625 10.707031 -17.125 9.75 -16.125 C 8.800781 -15.132812 8.328125 -13.804688 8.328125 -12.140625 L 8.328125 -2.375 C 8.328125 -1.550781 8.078125 -0.90625 7.578125 -0.4375 C 7.085938 0.03125 6.414062 0.265625 5.5625 0.265625 C 4.71875 0.265625 4.050781 0.03125 3.5625 -0.4375 C 3.082031 -0.90625 2.84375 -1.550781 2.84375 -2.375 L 2.84375 -19.328125 C 2.84375 -20.085938 3.09375 -20.703125 3.59375 -21.171875 C 4.09375 -21.640625 4.765625 -21.875 5.609375 -21.875 C 6.367188 -21.875 6.988281 -21.644531 7.46875 -21.1875 C 7.957031 -20.738281 8.203125 -20.148438 8.203125 -19.421875 L 8.203125 -18.234375 C 8.929688 -19.429688 9.910156 -20.351562 11.140625 -21 C 12.367188 -21.644531 13.753906 -21.96875 15.296875 -21.96875 Z M 15.296875 -21.96875 "/></g></g></g><g fill="#000000" fill-opacity="1"><g transform="translate(374.145293, 311.012012)"><g><path d="M 13.984375 -3.8125 C 15.441406 -3.726562 16.171875 -3.070312 16.171875 -1.84375 C 16.171875 -1.144531 15.882812 -0.609375 15.3125 -0.234375 C 14.75 0.128906 13.941406 0.28125 12.890625 0.21875 L 11.703125 0.125 C 6.796875 -0.21875 4.34375 -2.847656 4.34375 -7.765625 L 4.34375 -17.3125 L 2.140625 -17.3125 C 1.359375 -17.3125 0.753906 -17.488281 0.328125 -17.84375 C -0.0976562 -18.195312 -0.3125 -18.707031 -0.3125 -19.375 C -0.3125 -20.050781 -0.0976562 -20.5625 0.328125 -20.90625 C 0.753906 -21.257812 1.359375 -21.4375 2.140625 -21.4375 L 4.34375 -21.4375 L 4.34375 -25.46875 C 4.34375 -26.257812 4.585938 -26.890625 5.078125 -27.359375 C 5.578125 -27.828125 6.253906 -28.0625 7.109375 -28.0625 C 7.921875 -28.0625 8.578125 -27.828125 9.078125 -27.359375 C 9.578125 -26.890625 9.828125 -26.257812 9.828125 -25.46875 L 9.828125 -21.4375 L 13.546875 -21.4375 C 14.335938 -21.4375 14.941406 -21.257812 15.359375 -20.90625 C 15.785156 -20.5625 16 -20.050781 16 -19.375 C 16 -18.707031 15.785156 -18.195312 15.359375 -17.84375 C 14.941406 -17.488281 14.335938 -17.3125 13.546875 -17.3125 L 9.828125 -17.3125 L 9.828125 -7.359375 C 9.828125 -5.203125 10.816406 -4.050781 12.796875 -3.90625 Z M 13.984375 -3.8125 "/></g></g></g><g fill="#000000" fill-opacity="1"><g transform="translate(390.319121, 311.012012)"><g><path d="M 19.8125 -5.875 C 20.3125 -5.875 20.710938 -5.679688 21.015625 -5.296875 C 21.328125 -4.921875 21.484375 -4.410156 21.484375 -3.765625 C 21.484375 -2.859375 20.941406 -2.097656 19.859375 -1.484375 C 18.867188 -0.929688 17.742188 -0.488281 16.484375 -0.15625 C 15.222656 0.175781 14.023438 0.34375 12.890625 0.34375 C 9.441406 0.34375 6.707031 -0.644531 4.6875 -2.625 C 2.675781 -4.613281 1.671875 -7.332031 1.671875 -10.78125 C 1.671875 -12.976562 2.109375 -14.921875 2.984375 -16.609375 C 3.859375 -18.304688 5.09375 -19.625 6.6875 -20.5625 C 8.28125 -21.5 10.082031 -21.96875 12.09375 -21.96875 C 14.03125 -21.96875 15.710938 -21.539062 17.140625 -20.6875 C 18.578125 -19.84375 19.6875 -18.644531 20.46875 -17.09375 C 21.257812 -15.550781 21.65625 -13.726562 21.65625 -11.625 C 21.65625 -10.363281 21.101562 -9.734375 20 -9.734375 L 7.0625 -9.734375 C 7.238281 -7.710938 7.804688 -6.226562 8.765625 -5.28125 C 9.734375 -4.332031 11.140625 -3.859375 12.984375 -3.859375 C 13.910156 -3.859375 14.734375 -3.972656 15.453125 -4.203125 C 16.171875 -4.441406 16.984375 -4.765625 17.890625 -5.171875 C 18.765625 -5.640625 19.40625 -5.875 19.8125 -5.875 Z M 12.234375 -18.109375 C 10.742188 -18.109375 9.550781 -17.640625 8.65625 -16.703125 C 7.769531 -15.765625 7.238281 -14.421875 7.0625 -12.671875 L 16.96875 -12.671875 C 16.90625 -14.453125 16.460938 -15.800781 15.640625 -16.71875 C 14.828125 -17.644531 13.691406 -18.109375 12.234375 -18.109375 Z M 12.234375 -18.109375 "/></g></g></g><g fill="#000000" fill-opacity="1"><g transform="translate(413.593651, 311.012012)"><g><path d="M 15.296875 -21.96875 C 17.867188 -21.96875 19.785156 -21.234375 21.046875 -19.765625 C 22.304688 -18.304688 22.9375 -16.101562 22.9375 -13.15625 L 22.9375 -2.375 C 22.9375 -1.550781 22.691406 -0.90625 22.203125 -0.4375 C 21.722656 0.03125 21.0625 0.265625 20.21875 0.265625 C 19.363281 0.265625 18.6875 0.03125 18.1875 -0.4375 C 17.695312 -0.90625 17.453125 -1.550781 17.453125 -2.375 L 17.453125 -12.84375 C 17.453125 -14.507812 17.132812 -15.722656 16.5 -16.484375 C 15.875 -17.242188 14.890625 -17.625 13.546875 -17.625 C 11.972656 -17.625 10.707031 -17.125 9.75 -16.125 C 8.800781 -15.132812 8.328125 -13.804688 8.328125 -12.140625 L 8.328125 -2.375 C 8.328125 -1.550781 8.078125 -0.90625 7.578125 -0.4375 C 7.085938 0.03125 6.414062 0.265625 5.5625 0.265625 C 4.71875 0.265625 4.050781 0.03125 3.5625 -0.4375 C 3.082031 -0.90625 2.84375 -1.550781 2.84375 -2.375 L 2.84375 -19.328125 C 2.84375 -20.085938 3.09375 -20.703125 3.59375 -21.171875 C 4.09375 -21.640625 4.765625 -21.875 5.609375 -21.875 C 6.367188 -21.875 6.988281 -21.644531 7.46875 -21.1875 C 7.957031 -20.738281 8.203125 -20.148438 8.203125 -19.421875 L 8.203125 -18.234375 C 8.929688 -19.429688 9.910156 -20.351562 11.140625 -21 C 12.367188 -21.644531 13.753906 -21.96875 15.296875 -21.96875 Z M 15.296875 -21.96875 "/></g></g></g><g fill="#000000" fill-opacity="1"><g transform="translate(439.235087, 311.012012)"><g><path d="M 20.734375 -31.125 C 21.554688 -31.125 22.226562 -30.890625 22.75 -30.421875 C 23.28125 -29.953125 23.546875 -29.34375 23.546875 -28.59375 L 23.546875 -2.375 C 23.546875 -1.582031 23.296875 -0.953125 22.796875 -0.484375 C 22.296875 -0.015625 21.640625 0.21875 20.828125 0.21875 C 20.003906 0.21875 19.34375 -0.015625 18.84375 -0.484375 C 18.351562 -0.953125 18.109375 -1.582031 18.109375 -2.375 L 18.109375 -3.46875 C 17.460938 -2.269531 16.53125 -1.332031 15.3125 -0.65625 C 14.101562 0.0078125 12.726562 0.34375 11.1875 0.34375 C 9.34375 0.34375 7.695312 -0.117188 6.25 -1.046875 C 4.800781 -1.984375 3.675781 -3.304688 2.875 -5.015625 C 2.070312 -6.722656 1.671875 -8.691406 1.671875 -10.921875 C 1.671875 -13.140625 2.070312 -15.082031 2.875 -16.75 C 3.675781 -18.414062 4.789062 -19.703125 6.21875 -20.609375 C 7.65625 -21.515625 9.3125 -21.96875 11.1875 -21.96875 C 12.726562 -21.96875 14.097656 -21.644531 15.296875 -21 C 16.492188 -20.351562 17.414062 -19.445312 18.0625 -18.28125 L 18.0625 -28.671875 C 18.0625 -29.398438 18.300781 -29.988281 18.78125 -30.4375 C 19.269531 -30.894531 19.921875 -31.125 20.734375 -31.125 Z M 12.625 -3.90625 C 14.375 -3.90625 15.722656 -4.503906 16.671875 -5.703125 C 17.628906 -6.898438 18.109375 -8.609375 18.109375 -10.828125 C 18.109375 -13.046875 17.628906 -14.75 16.671875 -15.9375 C 15.722656 -17.125 14.390625 -17.71875 12.671875 -17.71875 C 10.921875 -17.71875 9.5625 -17.128906 8.59375 -15.953125 C 7.625 -14.785156 7.140625 -13.109375 7.140625 -10.921875 C 7.140625 -8.691406 7.625 -6.960938 8.59375 -5.734375 C 9.5625 -4.515625 10.90625 -3.90625 12.625 -3.90625 Z M 12.625 -3.90625 "/></g></g></g><g fill="#000000" fill-opacity="1"><g transform="translate(465.577827, 311.012012)"><g><path d="M 5.4375 0.265625 C 4.5 0.265625 3.722656 -0.046875 3.109375 -0.671875 C 2.492188 -1.304688 2.1875 -2.09375 2.1875 -3.03125 C 2.1875 -3.957031 2.492188 -4.734375 3.109375 -5.359375 C 3.722656 -5.992188 4.5 -6.3125 5.4375 -6.3125 C 6.375 -6.3125 7.148438 -5.992188 7.765625 -5.359375 C 8.378906 -4.734375 8.6875 -3.957031 8.6875 -3.03125 C 8.6875 -2.09375 8.378906 -1.304688 7.765625 -0.671875 C 7.148438 -0.046875 6.375 0.265625 5.4375 0.265625 Z M 5.4375 0.265625 "/></g></g></g><g fill="#000000" fill-opacity="1"><g transform="translate(476.448044, 311.012012)"><g><path d="M 13.671875 -26.828125 C 12.328125 -26.742188 11.347656 -26.335938 10.734375 -25.609375 C 10.128906 -24.878906 9.828125 -23.828125 9.828125 -22.453125 L 9.828125 -21.4375 L 13.546875 -21.4375 C 15.179688 -21.4375 16 -20.75 16 -19.375 C 16 -18 15.179688 -17.3125 13.546875 -17.3125 L 9.828125 -17.3125 L 9.828125 -2.375 C 9.828125 -1.519531 9.566406 -0.875 9.046875 -0.4375 C 8.535156 0 7.890625 0.21875 7.109375 0.21875 C 6.316406 0.21875 5.65625 0 5.125 -0.4375 C 4.601562 -0.875 4.34375 -1.519531 4.34375 -2.375 L 4.34375 -17.3125 L 2.140625 -17.3125 C 0.503906 -17.3125 -0.3125 -18 -0.3125 -19.375 C -0.3125 -20.75 0.503906 -21.4375 2.140625 -21.4375 L 4.34375 -21.4375 L 4.34375 -21.75 C 4.34375 -24.5 5.066406 -26.65625 6.515625 -28.21875 C 7.960938 -29.78125 10 -30.660156 12.625 -30.859375 L 13.765625 -30.953125 C 14.929688 -31.035156 15.753906 -30.910156 16.234375 -30.578125 C 16.722656 -30.242188 16.96875 -29.726562 16.96875 -29.03125 C 16.96875 -27.769531 16.25 -27.066406 14.8125 -26.921875 Z M 13.671875 -26.828125 "/></g></g></g><g fill="#000000" fill-opacity="1"><g transform="translate(492.139732, 311.012012)"><g><path d="M 12.625 0.34375 C 10.4375 0.34375 8.515625 -0.109375 6.859375 -1.015625 C 5.210938 -1.921875 3.9375 -3.21875 3.03125 -4.90625 C 2.125 -6.601562 1.671875 -8.578125 1.671875 -10.828125 C 1.671875 -13.078125 2.125 -15.039062 3.03125 -16.71875 C 3.9375 -18.40625 5.210938 -19.703125 6.859375 -20.609375 C 8.515625 -21.515625 10.4375 -21.96875 12.625 -21.96875 C 14.820312 -21.96875 16.742188 -21.515625 18.390625 -20.609375 C 20.046875 -19.703125 21.316406 -18.40625 22.203125 -16.71875 C 23.097656 -15.039062 23.546875 -13.078125 23.546875 -10.828125 C 23.546875 -8.578125 23.097656 -6.601562 22.203125 -4.90625 C 21.316406 -3.21875 20.046875 -1.921875 18.390625 -1.015625 C 16.742188 -0.109375 14.820312 0.34375 12.625 0.34375 Z M 12.578125 -3.90625 C 14.359375 -3.90625 15.71875 -4.488281 16.65625 -5.65625 C 17.59375 -6.820312 18.0625 -8.546875 18.0625 -10.828125 C 18.0625 -13.078125 17.59375 -14.789062 16.65625 -15.96875 C 15.71875 -17.15625 14.375 -17.75 12.625 -17.75 C 10.875 -17.75 9.519531 -17.15625 8.5625 -15.96875 C 7.613281 -14.789062 7.140625 -13.078125 7.140625 -10.828125 C 7.140625 -8.546875 7.609375 -6.820312 8.546875 -5.65625 C 9.484375 -4.488281 10.828125 -3.90625 12.578125 -3.90625 Z M 12.578125 -3.90625 "/></g></g></g><g fill="#000000" fill-opacity="1"><g transform="translate(517.342857, 311.012012)"><g><path d="M 12.625 0.34375 C 10.4375 0.34375 8.515625 -0.109375 6.859375 -1.015625 C 5.210938 -1.921875 3.9375 -3.21875 3.03125 -4.90625 C 2.125 -6.601562 1.671875 -8.578125 1.671875 -10.828125 C 1.671875 -13.078125 2.125 -15.039062 3.03125 -16.71875 C 3.9375 -18.40625 5.210938 -19.703125 6.859375 -20.609375 C 8.515625 -21.515625 10.4375 -21.96875 12.625 -21.96875 C 14.820312 -21.96875 16.742188 -21.515625 18.390625 -20.609375 C 20.046875 -19.703125 21.316406 -18.40625 22.203125 -16.71875 C 23.097656 -15.039062 23.546875 -13.078125 23.546875 -10.828125 C 23.546875 -8.578125 23.097656 -6.601562 22.203125 -4.90625 C 21.316406 -3.21875 20.046875 -1.921875 18.390625 -1.015625 C 16.742188 -0.109375 14.820312 0.34375 12.625 0.34375 Z M 12.578125 -3.90625 C 14.359375 -3.90625 15.71875 -4.488281 16.65625 -5.65625 C 17.59375 -6.820312 18.0625 -8.546875 18.0625 -10.828125 C 18.0625 -13.078125 17.59375 -14.789062 16.65625 -15.96875 C 15.71875 -17.15625 14.375 -17.75 12.625 -17.75 C 10.875 -17.75 9.519531 -17.15625 8.5625 -15.96875 C 7.613281 -14.789062 7.140625 -13.078125 7.140625 -10.828125 C 7.140625 -8.546875 7.609375 -6.820312 8.546875 -5.65625 C 9.484375 -4.488281 10.828125 -3.90625 12.578125 -3.90625 Z M 12.578125 -3.90625 "/></g></g></g><path stroke-linecap="round" transform="matrix(0.000000000000000042, 0.690669, -0.690571, 0.000000000000000042, 270.84327, 230.269815)" fill="none" stroke-linejoin="miter" d="M 3.500499 3.500711 L 216.473446 3.500711 " stroke="#000000" stroke-width="7" stroke-opacity="1" stroke-miterlimit="4"/><g fill="#000000" fill-opacity="1"><g transform="translate(290.821569, 346.785061)"><g><path d="M 11.125 -1.203125 C 11.1875 -1.066406 11.21875 -0.929688 11.21875 -0.796875 C 11.21875 -0.554688 11.117188 -0.351562 10.921875 -0.1875 C 10.734375 -0.0195312 10.515625 0.0625 10.265625 0.0625 C 10.097656 0.0625 9.941406 0.0195312 9.796875 -0.0625 C 9.660156 -0.15625 9.550781 -0.296875 9.46875 -0.484375 L 8.53125 -2.5625 L 3.046875 -2.5625 L 2.109375 -0.484375 C 2.023438 -0.296875 1.910156 -0.15625 1.765625 -0.0625 C 1.628906 0.0195312 1.472656 0.0625 1.296875 0.0625 C 1.054688 0.0625 0.835938 -0.0195312 0.640625 -0.1875 C 0.441406 -0.351562 0.34375 -0.554688 0.34375 -0.796875 C 0.34375 -0.929688 0.375 -1.066406 0.4375 -1.203125 L 4.734375 -10.421875 C 4.828125 -10.628906 4.96875 -10.785156 5.15625 -10.890625 C 5.351562 -11.003906 5.5625 -11.0625 5.78125 -11.0625 C 5.988281 -11.0625 6.1875 -11.003906 6.375 -10.890625 C 6.570312 -10.785156 6.71875 -10.628906 6.8125 -10.421875 Z M 3.734375 -4.125 L 7.84375 -4.125 L 5.796875 -8.75 Z M 3.734375 -4.125 "/></g></g></g><g fill="#000000" fill-opacity="1"><g transform="translate(302.354837, 346.785061)"><g><path d="M 2.125 0 C 1.832031 0 1.601562 -0.0820312 1.4375 -0.25 C 1.269531 -0.414062 1.1875 -0.644531 1.1875 -0.9375 L 1.1875 -10.046875 C 1.1875 -10.347656 1.273438 -10.585938 1.453125 -10.765625 C 1.640625 -10.953125 1.878906 -11.046875 2.171875 -11.046875 C 2.484375 -11.046875 2.726562 -10.953125 2.90625 -10.765625 C 3.09375 -10.585938 3.1875 -10.347656 3.1875 -10.046875 L 3.1875 -1.65625 L 7.5625 -1.65625 C 8.1875 -1.65625 8.5 -1.378906 8.5 -0.828125 C 8.5 -0.273438 8.1875 0 7.5625 0 Z M 2.125 0 "/></g></g></g><g fill="#000000" fill-opacity="1"><g transform="translate(310.981469, 346.785061)"><g><path d="M 2.125 0 C 1.832031 0 1.601562 -0.0820312 1.4375 -0.25 C 1.269531 -0.414062 1.1875 -0.644531 1.1875 -0.9375 L 1.1875 -10.046875 C 1.1875 -10.347656 1.273438 -10.585938 1.453125 -10.765625 C 1.640625 -10.953125 1.878906 -11.046875 2.171875 -11.046875 C 2.484375 -11.046875 2.726562 -10.953125 2.90625 -10.765625 C 3.09375 -10.585938 3.1875 -10.347656 3.1875 -10.046875 L 3.1875 -1.65625 L 7.5625 -1.65625 C 8.1875 -1.65625 8.5 -1.378906 8.5 -0.828125 C 8.5 -0.273438 8.1875 0 7.5625 0 Z M 2.125 0 "/></g></g></g><g fill="#000000" fill-opacity="1"><g transform="translate(319.608102, 346.785061)"><g/></g></g><g fill="#000000" fill-opacity="1"><g transform="translate(323.820388, 346.785061)"><g><path d="M 4.78125 0.078125 C 4.46875 0.078125 4.21875 -0.0078125 4.03125 -0.1875 C 3.851562 -0.375 3.765625 -0.617188 3.765625 -0.921875 L 3.765625 -9.328125 L 0.9375 -9.328125 C 0.3125 -9.328125 0 -9.597656 0 -10.140625 C 0 -10.691406 0.3125 -10.96875 0.9375 -10.96875 L 8.609375 -10.96875 C 9.234375 -10.96875 9.546875 -10.691406 9.546875 -10.140625 C 9.546875 -9.597656 9.234375 -9.328125 8.609375 -9.328125 L 5.78125 -9.328125 L 5.78125 -0.921875 C 5.78125 -0.617188 5.6875 -0.375 5.5 -0.1875 C 5.320312 -0.0078125 5.082031 0.078125 4.78125 0.078125 Z M 4.78125 0.078125 "/></g></g></g><g fill="#000000" fill-opacity="1"><g transform="translate(333.348534, 346.785061)"><g><path d="M 9.75 -11.046875 C 10.050781 -11.046875 10.289062 -10.953125 10.46875 -10.765625 C 10.644531 -10.585938 10.734375 -10.347656 10.734375 -10.046875 L 10.734375 -0.921875 C 10.734375 -0.617188 10.640625 -0.375 10.453125 -0.1875 C 10.273438 0 10.039062 0.09375 9.75 0.09375 C 9.457031 0.09375 9.222656 0 9.046875 -0.1875 C 8.867188 -0.375 8.78125 -0.617188 8.78125 -0.921875 L 8.78125 -4.765625 L 3.15625 -4.765625 L 3.15625 -0.921875 C 3.15625 -0.617188 3.0625 -0.375 2.875 -0.1875 C 2.695312 0 2.457031 0.09375 2.15625 0.09375 C 1.875 0.09375 1.640625 0 1.453125 -0.1875 C 1.273438 -0.375 1.1875 -0.617188 1.1875 -0.921875 L 1.1875 -10.046875 C 1.1875 -10.347656 1.273438 -10.585938 1.453125 -10.765625 C 1.628906 -10.953125 1.863281 -11.046875 2.15625 -11.046875 C 2.457031 -11.046875 2.695312 -10.953125 2.875 -10.765625 C 3.0625 -10.585938 3.15625 -10.347656 3.15625 -10.046875 L 3.15625 -6.375 L 8.78125 -6.375 L 8.78125 -10.046875 C 8.78125 -10.347656 8.867188 -10.585938 9.046875 -10.765625 C 9.222656 -10.953125 9.457031 -11.046875 9.75 -11.046875 Z M 9.75 -11.046875 "/></g></g></g><g fill="#000000" fill-opacity="1"><g transform="translate(345.254844, 346.785061)"><g><path d="M 2.171875 0.09375 C 1.878906 0.09375 1.640625 0 1.453125 -0.1875 C 1.273438 -0.375 1.1875 -0.617188 1.1875 -0.921875 L 1.1875 -10.046875 C 1.1875 -10.347656 1.273438 -10.585938 1.453125 -10.765625 C 1.640625 -10.953125 1.878906 -11.046875 2.171875 -11.046875 C 2.484375 -11.046875 2.726562 -10.953125 2.90625 -10.765625 C 3.09375 -10.585938 3.1875 -10.347656 3.1875 -10.046875 L 3.1875 -0.921875 C 3.1875 -0.617188 3.09375 -0.375 2.90625 -0.1875 C 2.726562 0 2.484375 0.09375 2.171875 0.09375 Z M 2.171875 0.09375 "/></g></g></g><g fill="#000000" fill-opacity="1"><g transform="translate(349.622556, 346.785061)"><g><path d="M 9.5 -11.046875 C 9.78125 -11.046875 10.003906 -10.953125 10.171875 -10.765625 C 10.347656 -10.585938 10.4375 -10.347656 10.4375 -10.046875 L 10.4375 -0.921875 C 10.4375 -0.617188 10.347656 -0.375 10.171875 -0.1875 C 9.992188 0 9.769531 0.09375 9.5 0.09375 C 9.164062 0.09375 8.910156 -0.0234375 8.734375 -0.265625 L 3.046875 -7.65625 L 3.046875 -0.921875 C 3.046875 -0.617188 2.960938 -0.375 2.796875 -0.1875 C 2.628906 0 2.398438 0.09375 2.109375 0.09375 C 1.828125 0.09375 1.601562 0 1.4375 -0.1875 C 1.269531 -0.375 1.1875 -0.617188 1.1875 -0.921875 L 1.1875 -10.046875 C 1.1875 -10.347656 1.273438 -10.585938 1.453125 -10.765625 C 1.628906 -10.953125 1.859375 -11.046875 2.140625 -11.046875 C 2.460938 -11.046875 2.710938 -10.925781 2.890625 -10.6875 L 8.5625 -3.328125 L 8.5625 -10.046875 C 8.5625 -10.347656 8.644531 -10.585938 8.8125 -10.765625 C 8.988281 -10.953125 9.21875 -11.046875 9.5 -11.046875 Z M 9.5 -11.046875 "/></g></g></g><g fill="#000000" fill-opacity="1"><g transform="translate(361.233536, 346.785061)"><g><path d="M 9.546875 -5.921875 C 9.773438 -5.921875 9.960938 -5.851562 10.109375 -5.71875 C 10.253906 -5.582031 10.328125 -5.398438 10.328125 -5.171875 L 10.328125 -1.828125 C 10.328125 -1.347656 10.265625 -1.007812 10.140625 -0.8125 C 10.015625 -0.613281 9.765625 -0.453125 9.390625 -0.328125 C 8.972656 -0.179688 8.488281 -0.0664062 7.9375 0.015625 C 7.382812 0.0976562 6.851562 0.140625 6.34375 0.140625 C 5.21875 0.140625 4.238281 -0.0820312 3.40625 -0.53125 C 2.570312 -0.976562 1.9375 -1.625 1.5 -2.46875 C 1.0625 -3.3125 0.84375 -4.320312 0.84375 -5.5 C 0.84375 -6.644531 1.0625 -7.640625 1.5 -8.484375 C 1.9375 -9.328125 2.5625 -9.972656 3.375 -10.421875 C 4.1875 -10.878906 5.140625 -11.109375 6.234375 -11.109375 C 7.703125 -11.109375 8.898438 -10.710938 9.828125 -9.921875 C 9.953125 -9.804688 10.039062 -9.691406 10.09375 -9.578125 C 10.15625 -9.472656 10.1875 -9.34375 10.1875 -9.1875 C 10.1875 -8.957031 10.125 -8.765625 10 -8.609375 C 9.875 -8.453125 9.726562 -8.375 9.5625 -8.375 C 9.445312 -8.375 9.34375 -8.390625 9.25 -8.421875 C 9.15625 -8.460938 9.046875 -8.523438 8.921875 -8.609375 C 8.460938 -8.929688 8.035156 -9.15625 7.640625 -9.28125 C 7.242188 -9.414062 6.796875 -9.484375 6.296875 -9.484375 C 5.171875 -9.484375 4.316406 -9.144531 3.734375 -8.46875 C 3.160156 -7.800781 2.875 -6.8125 2.875 -5.5 C 2.875 -2.800781 4.054688 -1.453125 6.421875 -1.453125 C 7.128906 -1.453125 7.835938 -1.550781 8.546875 -1.75 L 8.546875 -4.5 L 6.78125 -4.5 C 6.53125 -4.5 6.332031 -4.5625 6.1875 -4.6875 C 6.050781 -4.8125 5.984375 -4.988281 5.984375 -5.21875 C 5.984375 -5.445312 6.050781 -5.617188 6.1875 -5.734375 C 6.332031 -5.859375 6.53125 -5.921875 6.78125 -5.921875 Z M 9.546875 -5.921875 "/></g></g></g><g fill="#000000" fill-opacity="1"><g transform="translate(372.626898, 346.785061)"><g><path d="M 4.984375 0.140625 C 4.179688 0.140625 3.425781 0.0351562 2.71875 -0.171875 C 2.007812 -0.390625 1.429688 -0.679688 0.984375 -1.046875 C 0.742188 -1.222656 0.625 -1.472656 0.625 -1.796875 C 0.625 -2.003906 0.6875 -2.1875 0.8125 -2.34375 C 0.945312 -2.507812 1.101562 -2.59375 1.28125 -2.59375 C 1.46875 -2.59375 1.679688 -2.519531 1.921875 -2.375 C 2.359375 -2.0625 2.820312 -1.832031 3.3125 -1.6875 C 3.800781 -1.539062 4.34375 -1.46875 4.9375 -1.46875 C 5.6875 -1.46875 6.265625 -1.597656 6.671875 -1.859375 C 7.078125 -2.117188 7.28125 -2.503906 7.28125 -3.015625 C 7.28125 -3.410156 7.085938 -3.710938 6.703125 -3.921875 C 6.328125 -4.140625 5.703125 -4.347656 4.828125 -4.546875 C 3.910156 -4.742188 3.164062 -4.972656 2.59375 -5.234375 C 2.03125 -5.492188 1.601562 -5.820312 1.3125 -6.21875 C 1.019531 -6.625 0.875 -7.140625 0.875 -7.765625 C 0.875 -8.410156 1.050781 -8.984375 1.40625 -9.484375 C 1.769531 -9.992188 2.273438 -10.390625 2.921875 -10.671875 C 3.578125 -10.960938 4.3125 -11.109375 5.125 -11.109375 C 6.601562 -11.109375 7.8125 -10.710938 8.75 -9.921875 C 8.882812 -9.804688 8.976562 -9.695312 9.03125 -9.59375 C 9.09375 -9.488281 9.125 -9.351562 9.125 -9.1875 C 9.125 -8.96875 9.054688 -8.773438 8.921875 -8.609375 C 8.796875 -8.453125 8.644531 -8.375 8.46875 -8.375 C 8.363281 -8.375 8.265625 -8.390625 8.171875 -8.421875 C 8.085938 -8.453125 7.972656 -8.507812 7.828125 -8.59375 C 7.398438 -8.90625 6.984375 -9.132812 6.578125 -9.28125 C 6.179688 -9.4375 5.695312 -9.515625 5.125 -9.515625 C 4.414062 -9.515625 3.851562 -9.367188 3.4375 -9.078125 C 3.03125 -8.796875 2.828125 -8.398438 2.828125 -7.890625 C 2.828125 -7.460938 3.007812 -7.132812 3.375 -6.90625 C 3.738281 -6.675781 4.359375 -6.460938 5.234375 -6.265625 C 6.148438 -6.054688 6.894531 -5.828125 7.46875 -5.578125 C 8.050781 -5.328125 8.492188 -5.003906 8.796875 -4.609375 C 9.109375 -4.210938 9.265625 -3.71875 9.265625 -3.125 C 9.265625 -2.476562 9.082031 -1.910156 8.71875 -1.421875 C 8.363281 -0.929688 7.859375 -0.546875 7.203125 -0.265625 C 6.554688 0.00390625 5.816406 0.140625 4.984375 0.140625 Z M 4.984375 0.140625 "/></g></g></g><g fill="#000000" fill-opacity="1"><g transform="translate(382.543644, 346.785061)"><g/></g></g><g fill="#000000" fill-opacity="1"><g transform="translate(386.75593, 346.785061)"><g><path d="M 2.171875 0.09375 C 1.878906 0.09375 1.640625 0 1.453125 -0.1875 C 1.273438 -0.375 1.1875 -0.617188 1.1875 -0.921875 L 1.1875 -10.015625 C 1.1875 -10.316406 1.269531 -10.550781 1.4375 -10.71875 C 1.613281 -10.882812 1.847656 -10.96875 2.140625 -10.96875 L 7.609375 -10.96875 C 8.242188 -10.96875 8.5625 -10.695312 8.5625 -10.15625 C 8.5625 -9.632812 8.242188 -9.375 7.609375 -9.375 L 3.15625 -9.375 L 3.15625 -6.375 L 7.296875 -6.375 C 7.929688 -6.375 8.25 -6.109375 8.25 -5.578125 C 8.25 -5.046875 7.929688 -4.78125 7.296875 -4.78125 L 3.15625 -4.78125 L 3.15625 -0.921875 C 3.15625 -0.617188 3.066406 -0.375 2.890625 -0.1875 C 2.710938 0 2.472656 0.09375 2.171875 0.09375 Z M 2.171875 0.09375 "/></g></g></g><g fill="#000000" fill-opacity="1"><g transform="translate(395.553546, 346.785061)"><g><path d="M 9.953125 -1.265625 C 10.078125 -1.078125 10.140625 -0.894531 10.140625 -0.71875 C 10.140625 -0.476562 10.046875 -0.28125 9.859375 -0.125 C 9.671875 0.03125 9.445312 0.109375 9.1875 0.109375 C 9.019531 0.109375 8.859375 0.0703125 8.703125 0 C 8.554688 -0.0820312 8.429688 -0.203125 8.328125 -0.359375 L 6.25 -3.5 C 6.039062 -3.832031 5.820312 -4.066406 5.59375 -4.203125 C 5.363281 -4.335938 5.0625 -4.40625 4.6875 -4.40625 L 3.15625 -4.40625 L 3.15625 -0.921875 C 3.15625 -0.609375 3.066406 -0.359375 2.890625 -0.171875 C 2.710938 0.00390625 2.472656 0.09375 2.171875 0.09375 C 1.878906 0.09375 1.640625 0.00390625 1.453125 -0.171875 C 1.273438 -0.359375 1.1875 -0.609375 1.1875 -0.921875 L 1.1875 -10.015625 C 1.1875 -10.316406 1.269531 -10.550781 1.4375 -10.71875 C 1.613281 -10.882812 1.847656 -10.96875 2.140625 -10.96875 L 6.03125 -10.96875 C 7.28125 -10.96875 8.226562 -10.691406 8.875 -10.140625 C 9.519531 -9.585938 9.84375 -8.785156 9.84375 -7.734375 C 9.84375 -6.878906 9.601562 -6.179688 9.125 -5.640625 C 8.644531 -5.097656 7.960938 -4.75 7.078125 -4.59375 C 7.378906 -4.519531 7.644531 -4.390625 7.875 -4.203125 C 8.101562 -4.015625 8.328125 -3.753906 8.546875 -3.421875 Z M 5.765625 -5.9375 C 6.515625 -5.9375 7.066406 -6.078125 7.421875 -6.359375 C 7.773438 -6.648438 7.953125 -7.09375 7.953125 -7.6875 C 7.953125 -8.289062 7.773438 -8.726562 7.421875 -9 C 7.066406 -9.28125 6.515625 -9.421875 5.765625 -9.421875 L 3.140625 -9.421875 L 3.140625 -5.9375 Z M 5.765625 -5.9375 "/></g></g></g><g fill="#000000" fill-opacity="1"><g transform="translate(406.356265, 346.785061)"><g><path d="M 6.0625 0.140625 C 5 0.140625 4.070312 -0.0859375 3.28125 -0.546875 C 2.5 -1.003906 1.894531 -1.65625 1.46875 -2.5 C 1.050781 -3.351562 0.84375 -4.351562 0.84375 -5.5 C 0.84375 -6.632812 1.050781 -7.625 1.46875 -8.46875 C 1.882812 -9.3125 2.488281 -9.960938 3.28125 -10.421875 C 4.070312 -10.878906 5 -11.109375 6.0625 -11.109375 C 7.132812 -11.109375 8.0625 -10.878906 8.84375 -10.421875 C 9.625 -9.960938 10.222656 -9.3125 10.640625 -8.46875 C 11.066406 -7.625 11.28125 -6.632812 11.28125 -5.5 C 11.28125 -4.351562 11.066406 -3.351562 10.640625 -2.5 C 10.210938 -1.65625 9.609375 -1.003906 8.828125 -0.546875 C 8.046875 -0.0859375 7.125 0.140625 6.0625 0.140625 Z M 6.0625 -1.46875 C 7.070312 -1.46875 7.859375 -1.8125 8.421875 -2.5 C 8.992188 -3.195312 9.28125 -4.195312 9.28125 -5.5 C 9.28125 -6.789062 8.992188 -7.78125 8.421875 -8.46875 C 7.859375 -9.164062 7.070312 -9.515625 6.0625 -9.515625 C 5.050781 -9.515625 4.257812 -9.164062 3.6875 -8.46875 C 3.125 -7.78125 2.84375 -6.789062 2.84375 -5.5 C 2.84375 -4.195312 3.125 -3.195312 3.6875 -2.5 C 4.257812 -1.8125 5.050781 -1.46875 6.0625 -1.46875 Z M 6.0625 -1.46875 "/></g></g></g><g fill="#000000" fill-opacity="1"><g transform="translate(418.464636, 346.785061)"><g><path d="M 9.5 -11.046875 C 9.78125 -11.046875 10.003906 -10.953125 10.171875 -10.765625 C 10.347656 -10.585938 10.4375 -10.347656 10.4375 -10.046875 L 10.4375 -0.921875 C 10.4375 -0.617188 10.347656 -0.375 10.171875 -0.1875 C 9.992188 0 9.769531 0.09375 9.5 0.09375 C 9.164062 0.09375 8.910156 -0.0234375 8.734375 -0.265625 L 3.046875 -7.65625 L 3.046875 -0.921875 C 3.046875 -0.617188 2.960938 -0.375 2.796875 -0.1875 C 2.628906 0 2.398438 0.09375 2.109375 0.09375 C 1.828125 0.09375 1.601562 0 1.4375 -0.1875 C 1.269531 -0.375 1.1875 -0.617188 1.1875 -0.921875 L 1.1875 -10.046875 C 1.1875 -10.347656 1.273438 -10.585938 1.453125 -10.765625 C 1.628906 -10.953125 1.859375 -11.046875 2.140625 -11.046875 C 2.460938 -11.046875 2.710938 -10.925781 2.890625 -10.6875 L 8.5625 -3.328125 L 8.5625 -10.046875 C 8.5625 -10.347656 8.644531 -10.585938 8.8125 -10.765625 C 8.988281 -10.953125 9.21875 -11.046875 9.5 -11.046875 Z M 9.5 -11.046875 "/></g></g></g><g fill="#000000" fill-opacity="1"><g transform="translate(430.075616, 346.785061)"><g><path d="M 4.78125 0.078125 C 4.46875 0.078125 4.21875 -0.0078125 4.03125 -0.1875 C 3.851562 -0.375 3.765625 -0.617188 3.765625 -0.921875 L 3.765625 -9.328125 L 0.9375 -9.328125 C 0.3125 -9.328125 0 -9.597656 0 -10.140625 C 0 -10.691406 0.3125 -10.96875 0.9375 -10.96875 L 8.609375 -10.96875 C 9.234375 -10.96875 9.546875 -10.691406 9.546875 -10.140625 C 9.546875 -9.597656 9.234375 -9.328125 8.609375 -9.328125 L 5.78125 -9.328125 L 5.78125 -0.921875 C 5.78125 -0.617188 5.6875 -0.375 5.5 -0.1875 C 5.320312 -0.0078125 5.082031 0.078125 4.78125 0.078125 Z M 4.78125 0.078125 "/></g></g></g><g fill="#000000" fill-opacity="1"><g transform="translate(439.603761, 346.785061)"><g><path d="M 2.140625 0 C 1.847656 0 1.613281 -0.0820312 1.4375 -0.25 C 1.269531 -0.414062 1.1875 -0.648438 1.1875 -0.953125 L 1.1875 -10.015625 C 1.1875 -10.316406 1.269531 -10.550781 1.4375 -10.71875 C 1.613281 -10.882812 1.847656 -10.96875 2.140625 -10.96875 L 7.765625 -10.96875 C 8.066406 -10.96875 8.300781 -10.898438 8.46875 -10.765625 C 8.632812 -10.628906 8.71875 -10.4375 8.71875 -10.1875 C 8.71875 -9.925781 8.632812 -9.726562 8.46875 -9.59375 C 8.300781 -9.457031 8.066406 -9.390625 7.765625 -9.390625 L 3.140625 -9.390625 L 3.140625 -6.359375 L 7.453125 -6.359375 C 7.753906 -6.359375 7.988281 -6.289062 8.15625 -6.15625 C 8.320312 -6.019531 8.40625 -5.828125 8.40625 -5.578125 C 8.40625 -5.328125 8.320312 -5.132812 8.15625 -5 C 7.988281 -4.863281 7.753906 -4.796875 7.453125 -4.796875 L 3.140625 -4.796875 L 3.140625 -1.59375 L 7.765625 -1.59375 C 8.066406 -1.59375 8.300781 -1.519531 8.46875 -1.375 C 8.632812 -1.238281 8.71875 -1.039062 8.71875 -0.78125 C 8.71875 -0.53125 8.632812 -0.335938 8.46875 -0.203125 C 8.300781 -0.0664062 8.066406 0 7.765625 0 Z M 2.140625 0 "/></g></g></g><g fill="#000000" fill-opacity="1"><g transform="translate(448.758863, 346.785061)"><g><path d="M 9.5 -11.046875 C 9.78125 -11.046875 10.003906 -10.953125 10.171875 -10.765625 C 10.347656 -10.585938 10.4375 -10.347656 10.4375 -10.046875 L 10.4375 -0.921875 C 10.4375 -0.617188 10.347656 -0.375 10.171875 -0.1875 C 9.992188 0 9.769531 0.09375 9.5 0.09375 C 9.164062 0.09375 8.910156 -0.0234375 8.734375 -0.265625 L 3.046875 -7.65625 L 3.046875 -0.921875 C 3.046875 -0.617188 2.960938 -0.375 2.796875 -0.1875 C 2.628906 0 2.398438 0.09375 2.109375 0.09375 C 1.828125 0.09375 1.601562 0 1.4375 -0.1875 C 1.269531 -0.375 1.1875 -0.617188 1.1875 -0.921875 L 1.1875 -10.046875 C 1.1875 -10.347656 1.273438 -10.585938 1.453125 -10.765625 C 1.628906 -10.953125 1.859375 -11.046875 2.140625 -11.046875 C 2.460938 -11.046875 2.710938 -10.925781 2.890625 -10.6875 L 8.5625 -3.328125 L 8.5625 -10.046875 C 8.5625 -10.347656 8.644531 -10.585938 8.8125 -10.765625 C 8.988281 -10.953125 9.21875 -11.046875 9.5 -11.046875 Z M 9.5 -11.046875 "/></g></g></g><g fill="#000000" fill-opacity="1"><g transform="translate(460.369843, 346.785061)"><g><path d="M 2.140625 0 C 1.847656 0 1.613281 -0.0820312 1.4375 -0.25 C 1.269531 -0.414062 1.1875 -0.648438 1.1875 -0.953125 L 1.1875 -10.015625 C 1.1875 -10.316406 1.269531 -10.550781 1.4375 -10.71875 C 1.613281 -10.882812 1.847656 -10.96875 2.140625 -10.96875 L 5.234375 -10.96875 C 7.023438 -10.96875 8.414062 -10.488281 9.40625 -9.53125 C 10.394531 -8.570312 10.890625 -7.226562 10.890625 -5.5 C 10.890625 -3.75 10.394531 -2.394531 9.40625 -1.4375 C 8.414062 -0.476562 7.023438 0 5.234375 0 Z M 5.109375 -1.640625 C 7.628906 -1.640625 8.890625 -2.925781 8.890625 -5.5 C 8.890625 -8.0625 7.628906 -9.34375 5.109375 -9.34375 L 3.1875 -9.34375 L 3.1875 -1.640625 Z M 5.109375 -1.640625 "/></g></g></g></svg>